<svg t="1718114180553" class="icon" viewBox="0 0 1024 1024" version="1.1"
  xmlns="http://www.w3.org/2000/svg" p-id="6201" width="24" height="24">
  <path
    d="M41.829171 711.95648C131.639091 924.18048 352.316211 1050.09152 580.709171 1019.42784 809.102131 988.76416 988.757811 809.10848 1019.421491 580.71552c30.66368-228.39296001-95.24736-449.07008-307.47136-538.88A511.14496 511.14496 0 0 0 1.621811 512.9216a508.17024 508.17024 0 0 0 40.20736 199.03488z m163.99872-506.12224a431.22176 431.22176 0 0 1 288.36864-126.78656l0 305.91488-1.2032 0.4096 1.20320001 3.5328L494.196531 946.81088c-232.35584-10.0096-415.5904-201.30816-415.58016-433.88415999a431.45216 431.45216 0 0 1 127.21152-307.09248001z m0 0"
  ></path>
</svg>