<svg t="1717072631854" class="icon" viewBox="0 0 1153 1024" version="1.1"
  xmlns="http://www.w3.org/2000/svg" p-id="7735" width="36" height="36">
  <path
    d="M699.593915 626.80338c-26.998986-17.307042-54.546028 2.653746-62.060169 20.840564A230.731718 230.731718 0 0 0 620.169014 735.981972c0 124.711662 98.203042 226.347268 219.799437 228.799098l4.499831 0.043268h-2.408564v36.878423l0.072113 1.874929A22.066479 22.066479 0 0 0 863.145465 1024h1.673014l1.687436-0.144225c2.10569-0.259606 4.225803-0.85093 6.288226-1.802817l2.048-1.067268 138.268845-81.400789 1.817239-1.19707c12.100507-8.826592 12.100507-27.402817 0-36.186141l-1.817239-1.182648-138.268845-81.487324-1.629747-0.865352c-13.658141-6.648789-29.81138 2.841239-31.080563 18.20124l-0.072113 1.947042-0.014422 36.849577-1.456676-0.028845c-73.713577-2.10569-133.12-63.949521-133.12-139.653408 0-16.456113 2.769127-32.465127 8.177577-47.565521l2.16338-5.624789c4.615211-11.336113 8.797746-38.652394-18.215662-55.959437zM900.831549 449.233127c13.715831-6.591099 29.796958 2.927775 31.008451 18.316619l0.072113 1.87493v36.878423h-2.408564l4.514254 0.043267C1055.585352 508.783775 1153.802817 610.41938 1153.802817 735.11662c0 30.77769-5.913239 60.603493-17.364732 88.323605-5.23538 12.691831-20.191549 26.220169-37.931268 27.402817l-2.336451 0.072113c-7.023775 0.028845-14.422535-1.918197-21.792451-6.634366-27.013408-17.307042-22.845296-44.637746-18.215661-55.973859l2.16338-5.624789a140.576451 140.576451 0 0 0 8.192-47.565521l-0.05769-3.966197c-2.033577-73.886648-60.646761-133.624789-133.076733-135.687212l-1.471098-0.043267v36.864l-0.100958 2.22107a22.138592 22.138592 0 0 1-19.355042 19.946366l-1.658592 0.129803h-1.673014a21.100169 21.100169 0 0 1-8.36507-2.148958l-1.629747-0.865352-138.268845-81.487324-1.817239-1.182648c-12.100507-8.768901-12.100507-27.359549 0-36.18614l1.817239-1.197071 138.268845-81.400789zM1009.577465 328.631887v116.67831l-3.692169-1.038422-3.706592-0.980733-1.874929-0.461521-0.533634-1.846084-0.980733-2.985465c-18.215662-52.28169-80.521014-80.405634-133.29307-51.675944l-2.985465 1.687437-138.24 81.386366-3.519098 2.177803c-27.59031 17.941634-41.86862 46.902085-42.820507 76.179831-46.584789-0.11538-89.491831 29.825803-107.058479 72.372281a302.382873 302.382873 0 0 0-22.715493 107.837296L548.056338 735.981972l0.043268 5.06231 0.144225 5.595943c1.08169 31.397859 6.922817 61.598648 16.802254 89.88124H86.535211a86.535211 86.535211 0 0 1-86.535211-86.535211V328.631887h1009.577465zM360.56338 627.380282H158.647887a43.267606 43.267606 0 0 0-43.195493 40.729239L115.380282 670.647887v3.086423a43.267606 43.267606 0 0 0 40.729239 43.195493l2.538366 0.072112h201.915493a43.267606 43.267606 0 0 0 43.195493-40.714816l0.072113-2.552789V670.647887a43.267606 43.267606 0 0 0-43.267606-43.267605zM923.042254 0a86.535211 86.535211 0 0 1 86.535211 86.535211v92.722479H0V86.535211a86.535211 86.535211 0 0 1 86.535211-86.535211h836.507043z"
  ></path>
</svg>