<svg t="1716979074805" class="icon" viewBox="0 0 1024 1024" version="1.1"
  xmlns="http://www.w3.org/2000/svg" p-id="3755" width="36" height="36">
  <path
    d="M489.057524 121.904762v367.152762H121.904762V121.904762h367.152762z m-73.142857 73.142857H195.047619v220.867048h220.867048V195.047619zM365.714286 243.809524v121.904762h-121.904762v-121.904762h121.904762z m123.343238 291.132952V902.095238H121.904762V534.942476h367.152762z m-73.142857 73.142857H195.047619V828.952381h220.867048v-220.867048zM365.714286 658.285714v121.904762h-121.904762v-121.904762h121.904762zM902.095238 121.904762v367.152762H534.942476V121.904762H902.095238z m-73.142857 73.142857h-220.867048v220.867048H828.952381V195.047619z m-48.761905 48.761905v121.904762h-121.904762v-121.904762h121.904762z m-170.666666 585.142857v73.142857h-73.142858v-73.142857h73.142858z m146.285714 73.142857v-73.142857h73.142857v-97.52381h73.142857v170.666667h-146.285714z m-73.142857-292.571428v146.285714h73.142857v73.142857h-146.285714v-219.428571h73.142857z m146.285714 48.761904v73.142857h-73.142857v-73.142857h73.142857z m73.142857-121.904762v121.904762h-73.142857v-48.761904h-73.142857v-73.142858h146.285714z m-292.571428 0v73.142858h-73.142858v-73.142858h73.142858z"></path>
</svg>