<svg t="1716814470133" class="icon" viewBox="0 0 1024 1024" version="1.1"
  xmlns="http://www.w3.org/2000/svg" p-id="7963" width="36" height="36">
  <path
    d="M0 512c0 282.766222 229.233778 512 512 512s512-229.233778 512-512S794.766222 0 512 0 0 229.233778 0 512z"
    fill="#1BA27A" p-id="7964"></path>
  <path d="M752.128 258.048H267.264v117.248h184.32v172.032h116.736v-172.032h183.808z" fill="#FFFFFF"
    p-id="7965"></path>
  <path
    d="M820.224 520.704c0-38.4-138.24-69.12-309.248-69.12s-309.248 31.232-309.248 69.12c0 33.792 107.52 61.952 249.856 68.096v246.784h116.736V588.8c143.36-6.144 251.904-34.304 251.904-68.096zM510.976 565.76c-152.064 0-275.456-24.064-275.456-53.76s123.392-53.76 275.456-53.76c152.064 0 275.456 24.064 275.456 53.76s-123.392 53.76-275.456 53.76z"
    fill="#FFFFFF" p-id="7966"></path>
</svg>